<svg xmlns="http://www.w3.org/2000/svg" viewBox="0 0 1600 700">
<!-- Palm A (main, large) -->
<path d="M132 560 C128 470 130 400 140 306 L156 308 C150 400 148 470 152 560 Z" fill="#000"/>
<path d="M148,305 C178,311 203,327 214,352 C218,362 216,373 208,379 C198,357 180,333 158,317 C152,313 149,310 148,305 Z" fill="#000" transform="rotate(-150 148 307)"/>
<path d="M148,303 C183,277 220,271 246,285 C260,293 266,307 258,319 C236,305 203,297 170,303 C158,305 151,304 148,303 Z" fill="#000" transform="rotate(-110 148 307)"/>
<path d="M148,304 C188,291 230,293 260,313 C272,322 276,337 266,347 C244,325 208,311 168,309 C156,308 150,307 148,304 Z" fill="#000" transform="rotate(-65 148 307)"/>
<path d="M148,303 C183,277 220,271 246,285 C260,293 266,307 258,319 C236,305 203,297 170,303 C158,305 151,304 148,303 Z" fill="#000" transform="rotate(-25 148 307)"/>
<path d="M148,305 C178,311 203,327 214,352 C218,362 216,373 208,379 C198,357 180,333 158,317 C152,313 149,310 148,305 Z" fill="#000" transform="rotate(15 148 307)"/>
<path d="M148,304 C188,291 230,293 260,313 C272,322 276,337 266,347 C244,325 208,311 168,309 C156,308 150,307 148,304 Z" fill="#000" transform="rotate(55 148 307)"/>
<path d="M148,303 C183,277 220,271 246,285 C260,293 266,307 258,319 C236,305 203,297 170,303 C158,305 151,304 148,303 Z" fill="#000" transform="rotate(95 148 307)"/>
<ellipse cx="148" cy="322" rx="13" ry="9" fill="#000"/>
<!-- Palm B (medium) -->
<path d="M230 560 C232 486 244 428 266 372 L280 378 C260 430 248 488 246 560 Z" fill="#000"/>
<path d="M273,371 C303,348 334,343 356,355 C368,362 373,374 367,384 C348,372 320,365 292,371 C282,371 276,372 273,371 Z" fill="#000" transform="rotate(-140 273 374)"/>
<path d="M273,371 C307,360 343,362 368,379 C378,387 382,400 373,408 C355,389 324,377 293,377 C290,376 275,375 273,371 Z" fill="#000" transform="rotate(-95 273 374)"/>
<path d="M273,372 C299,377 320,391 329,412 C333,421 331,430 324,435 C316,417 300,396 282,383 C276,379 274,377 273,372 Z" fill="#000" transform="rotate(-50 273 374)"/>
<path d="M273,371 C303,348 334,343 356,355 C368,362 373,374 367,384 C348,372 320,365 292,371 C282,371 276,372 273,371 Z" fill="#000" transform="rotate(-10 273 374)"/>
<path d="M273,371 C307,360 343,362 368,379 C378,387 382,400 373,408 C355,389 324,377 293,377 C290,376 275,375 273,371 Z" fill="#000" transform="rotate(35 273 374)"/>
<path d="M273,372 C299,377 320,391 329,412 C333,421 331,430 324,435 C316,417 300,396 282,383 C276,379 274,377 273,372 Z" fill="#000" transform="rotate(80 273 374)"/>
<ellipse cx="272" cy="384" rx="11" ry="8" fill="#000"/>
<!-- Palm C (small) -->
<path d="M46 560 C44 508 50 464 62 420 L74 424 C64 466 60 510 60 560 Z" fill="#000"/>
<path d="M68,420 C94,412 121,413 141,426 C149,432 151,442 145,448 C130,434 107,425 81,425 C73,423 69,422 68,420 Z" fill="#000" transform="rotate(-130 68 422)"/>
<path d="M68,419 C91,402 115,399 132,408 C141,413 145,422 140,430 C125,421 104,415 82,419 C75,421 70,421 68,419 Z" fill="#000" transform="rotate(-80 68 422)"/>
<path d="M68,421 C88,425 104,435 111,451 C114,458 112,465 107,469 C100,455 88,439 74,428 C71,425 69,423 68,421 Z" fill="#000" transform="rotate(-30 68 422)"/>
<path d="M68,419 C91,402 115,399 132,408 C141,413 145,422 140,430 C125,421 104,415 82,419 C75,421 70,421 68,419 Z" fill="#000" transform="rotate(20 68 422)"/>
<path d="M68,420 C94,412 121,413 141,426 C149,432 151,442 145,448 C130,434 107,425 81,425 C73,423 69,422 68,420 Z" fill="#000" transform="rotate(70 68 422)"/>
<ellipse cx="68" cy="430" rx="9" ry="7" fill="#000"/>
<!-- Nouka: country boat, crescent hull, high swept prow, single sail, boatman with steering oar -->
<path d="M392,518 C400,540 460,550 540,548 C610,546 655,530 668,508 C678,492 686,472 690,450 C696,422 700,396 700,376 C700,364 694,358 686,360 C680,362 678,370 678,380 C676,406 668,432 652,454 C636,474 606,482 566,482 C500,482 440,476 404,464 C392,460 386,452 384,442 C382,428 384,414 390,404 C394,398 400,398 402,404 C406,412 402,422 398,432 C394,446 392,462 392,480 C392,492 392,506 392,518 Z" fill="#000"/>
<rect x="556" y="270" width="6" height="202" fill="#000"/>
<polygon points="562,264 598,273 562,282" fill="#000"/>
<path d="M556,264 L550,472 L636,458 C628,398 604,332 566,286 Z" fill="#000"/>
<circle cx="430" cy="442" r="9" fill="#000"/>
<path d="M422,451 L438,451 L442,470 L418,470 Z" fill="#000"/>
<path d="M416,454 L424,454 L392,536 L382,536 Z" fill="#000"/>
<ellipse cx="386" cy="536" rx="11" ry="5" fill="#000"/>
<!-- Container ship: hull, stepped stacks, aft bridge + funnel -->
<path d="M804 502 L1258 502 C1262 532 1250 556 1226 562 L868 562 C838 556 816 536 804 502 Z" fill="#000"/>
<path d="M800 500 C800 474 804 452 812 434 L828 434 L828 502 Z" fill="#000"/>
<rect x="822" y="486" width="440" height="18" fill="#000"/>
<rect x="848" y="458" width="56" height="26" fill="#000"/>
<rect x="848" y="428" width="56" height="26" fill="#000"/>
<rect x="910" y="458" width="56" height="26" fill="#000"/>
<rect x="910" y="428" width="56" height="26" fill="#000"/>
<rect x="910" y="398" width="56" height="26" fill="#000"/>
<rect x="972" y="458" width="56" height="26" fill="#000"/>
<rect x="972" y="428" width="56" height="26" fill="#000"/>
<rect x="972" y="398" width="56" height="26" fill="#000"/>
<rect x="972" y="368" width="56" height="26" fill="#000"/>
<rect x="1034" y="458" width="56" height="26" fill="#000"/>
<rect x="1034" y="428" width="56" height="26" fill="#000"/>
<rect x="1034" y="398" width="56" height="26" fill="#000"/>
<rect x="1096" y="458" width="56" height="26" fill="#000"/>
<rect x="1096" y="428" width="56" height="26" fill="#000"/>
<rect x="1162" y="386" width="72" height="100" fill="#000"/>
<rect x="1150" y="404" width="96" height="22" fill="#000"/>
<rect x="1180" y="346" width="34" height="42" fill="#000"/>
<rect x="1194" y="322" width="6" height="26" fill="#000"/>
<!-- Gantry crane 1: A-frame portal legs, boom over ship, counter-jib + backstay ties -->
<path d="M1330,556 L1362,556 L1332,344 L1316,344 Z" fill="#000"/>
<path d="M1280,556 L1312,556 L1330,344 L1314,344 Z" fill="#000"/>
<rect x="1278" y="550" width="86" height="10" fill="#000"/>
<rect x="1296" y="326" width="44" height="20" fill="#000"/>
<path d="M1300,330 L1150,320 L1150,334 L1300,344 Z" fill="#000"/>
<rect x="1170" y="334" width="22" height="26" fill="#000"/>
<path d="M1340,332 L1430,340 L1430,352 L1340,344 Z" fill="#000"/>
<rect x="1428" y="336" width="30" height="24" fill="#000"/>
<path d="M1312,330 L1324,332 L1172,324 L1162,320 Z" fill="#000"/>
<path d="M1328,336 L1340,334 L1424,344 L1420,350 Z" fill="#000"/>
<!-- Gantry crane 2 -->
<path d="M1510,556 L1542,556 L1512,344 L1496,344 Z" fill="#000"/>
<path d="M1460,556 L1492,556 L1510,344 L1494,344 Z" fill="#000"/>
<rect x="1458" y="550" width="86" height="10" fill="#000"/>
<rect x="1476" y="326" width="44" height="20" fill="#000"/>
<path d="M1480,330 L1360,320 L1360,334 L1480,344 Z" fill="#000"/>
<rect x="1378" y="334" width="20" height="24" fill="#000"/>
<path d="M1520,332 L1596,340 L1596,352 L1520,344 Z" fill="#000"/>
<rect x="1594" y="336" width="6" height="24" fill="#000"/>
<path d="M1492,330 L1504,332 L1378,324 L1368,320 Z" fill="#000"/>
<path d="M1508,336 L1520,334 L1588,344 L1584,350 Z" fill="#000"/>
<!-- Dockside container stacks -->
<rect x="1372" y="520" width="60" height="18" fill="#000"/>
<rect x="1372" y="538" width="60" height="18" fill="#000"/>
<rect x="1436" y="520" width="60" height="18" fill="#000"/>
<rect x="1436" y="538" width="60" height="18" fill="#000"/>
<rect x="1560" y="520" width="40" height="18" fill="#000"/>
<rect x="1560" y="538" width="40" height="18" fill="#000"/>
<!-- Continuous waterline base (no seams under cover crop) -->
<rect x="0" y="560" width="1600" height="6" fill="#000"/>
<rect x="60" y="584" width="260" height="4" fill="#000"/>
<rect x="360" y="584" width="180" height="4" fill="#000"/>
<rect x="600" y="584" width="320" height="4" fill="#000"/>
<rect x="980" y="584" width="230" height="4" fill="#000"/>
<rect x="1260" y="584" width="300" height="4" fill="#000"/>
<rect x="120" y="610" width="200" height="3.5" fill="#000"/>
<rect x="380" y="610" width="300" height="3.5" fill="#000"/>
<rect x="740" y="610" width="160" height="3.5" fill="#000"/>
<rect x="960" y="610" width="380" height="3.5" fill="#000"/>
<rect x="1400" y="610" width="170" height="3.5" fill="#000"/>
<rect x="40" y="636" width="330" height="3" fill="#000"/>
<rect x="430" y="636" width="220" height="3" fill="#000"/>
<rect x="710" y="636" width="290" height="3" fill="#000"/>
<rect x="1060" y="636" width="180" height="3" fill="#000"/>
<rect x="1300" y="636" width="260" height="3" fill="#000"/>
<rect x="200" y="662" width="240" height="2.5" fill="#000"/>
<rect x="520" y="662" width="360" height="2.5" fill="#000"/>
<rect x="940" y="662" width="200" height="2.5" fill="#000"/>
<rect x="1220" y="662" width="290" height="2.5" fill="#000"/>
</svg>
